<svg width="1237" height="459" viewBox="0 0 1237 459" fill="none" xmlns="http://www.w3.org/2000/svg">
<rect width="1237" height="459" fill="#D9D9D9"/>
<path d="M356.027 251.408L354.037 253.4C348.064 259.375 345.078 267.342 345.078 275.308V278.296C345.078 295.225 331.143 309.167 314.221 309.167H311.235C303.272 309.167 295.309 312.154 289.336 318.129L287.345 320.121C275.401 331.075 257.484 332.071 245.539 322.112C246.534 322.112 246.534 321.117 247.53 320.121L249.521 318.129C255.493 312.154 263.456 309.167 271.419 309.167H274.405C291.327 309.167 305.262 295.225 305.262 278.296V275.308C305.262 267.342 308.249 259.375 314.221 253.4L316.212 251.408C328.156 239.458 328.156 219.542 316.212 207.592L314.221 205.6C308.249 199.625 305.262 191.658 305.262 183.692V180.704C305.262 163.775 291.327 149.833 274.405 149.833H271.419C263.456 149.833 255.493 146.846 249.521 140.871L247.53 138.879C246.534 137.883 246.534 137.883 245.539 136.888C257.484 126.929 275.401 126.929 287.345 138.879L289.336 140.871C295.309 146.846 303.272 149.833 311.235 149.833H314.221C331.143 149.833 345.078 163.775 345.078 180.704V183.692C345.078 191.658 348.064 199.625 354.037 205.6L356.027 207.592C367.972 219.542 367.972 239.458 356.027 251.408Z" fill="#99F6E4"/>
<path d="M265.447 149.833C268.433 149.833 271.419 150.829 273.41 152.821L275.401 154.813C285.355 164.771 297.299 169.75 311.235 169.75H314.221C320.193 169.75 325.17 174.729 325.17 180.704V183.692C325.17 197.633 330.147 209.583 340.101 219.542L342.092 221.533C344.083 223.525 345.078 226.513 345.078 229.5C345.078 232.488 344.083 235.475 342.092 237.467L340.101 239.458C330.147 249.417 325.17 261.367 325.17 275.308V278.296C325.17 284.271 320.193 289.25 314.221 289.25H311.235C297.299 289.25 285.355 294.229 275.401 304.188L273.41 306.179C271.419 308.171 268.433 309.167 265.447 309.167C262.461 309.167 259.475 308.171 257.484 306.179L255.493 304.188C245.539 294.229 233.594 289.25 219.659 289.25H216.673C210.7 289.25 205.723 284.271 205.723 278.296V275.308C205.723 261.367 200.746 249.417 190.793 239.458L188.802 237.467C186.811 235.475 185.816 232.488 185.816 229.5C185.816 226.513 186.811 223.525 188.802 221.533L190.793 219.542C200.746 209.583 205.723 197.633 205.723 183.692V180.704C205.723 174.729 210.7 169.75 216.673 169.75H219.659C233.594 169.75 245.539 164.771 255.493 154.813L257.484 152.821C259.475 150.829 262.461 149.833 265.447 149.833ZM265.447 129.917C257.484 129.917 249.521 132.904 243.548 138.879L241.557 140.871C235.585 146.846 227.622 149.833 219.659 149.833H216.673C199.751 149.833 185.816 163.775 185.816 180.704V183.692C185.816 191.658 182.829 199.625 176.857 205.6L174.866 207.592C162.922 219.542 162.922 239.458 174.866 251.408L176.857 253.4C182.829 259.375 185.816 267.342 185.816 275.308V278.296C185.816 295.225 199.751 309.167 216.673 309.167H219.659C227.622 309.167 235.585 312.154 241.557 318.129L243.548 320.121C249.521 326.096 257.484 329.083 265.447 329.083C273.41 329.083 281.373 326.096 287.345 320.121L289.336 318.129C295.309 312.154 303.272 309.167 311.235 309.167H314.221C331.143 309.167 345.078 295.225 345.078 278.296V275.308C345.078 267.342 348.064 259.375 354.037 253.4L356.027 251.408C367.972 239.458 367.972 219.542 356.027 207.592L354.037 205.6C348.064 199.625 345.078 191.658 345.078 183.692V180.704C345.078 163.775 331.143 149.833 314.221 149.833H311.235C303.272 149.833 295.309 146.846 289.336 140.871L287.345 138.879C281.373 132.904 273.41 129.917 265.447 129.917Z" fill="#14B8A6"/>
<path fill-rule="evenodd" clip-rule="evenodd" d="M262.461 199.625C260.03 199.625 255.493 203.038 255.493 208.588V215.558C255.493 221.058 251.036 225.517 245.539 225.517C240.042 225.517 235.585 221.058 235.585 215.558V208.588C235.585 194.221 246.974 179.708 262.461 179.708H271.419C287.94 179.708 298.295 193.269 298.295 208.588C298.295 216.484 295.05 222.929 290.402 227.579L289.63 228.352L277.648 235.98L277.536 236.048C275.311 237.383 273.41 240.247 273.41 243.442V249.417C273.41 254.917 268.953 259.375 263.456 259.375C257.959 259.375 253.502 254.917 253.502 249.417V243.442C253.502 232.753 259.499 223.707 267.168 219.045L276.922 212.835C277.869 211.663 278.387 210.315 278.387 208.588C278.387 201.998 274.806 199.625 271.419 199.625H262.461Z" fill="#14B8A6"/>
<path d="M265.447 289.25C259.475 289.25 255.493 285.267 255.493 279.292C255.493 273.317 259.475 269.333 265.447 269.333C271.419 269.333 275.401 273.317 275.401 279.292C275.401 285.267 271.419 289.25 265.447 289.25Z" fill="#14B8A6"/>
<path d="M484.831 280.965C483.875 281.124 482.999 281.204 482.203 281.204C473.683 281.204 466.078 279.371 459.389 275.707C452.779 272.042 447.603 266.983 443.861 260.53C440.198 253.997 438.366 246.588 438.366 238.303C438.366 229.938 440.198 222.489 443.861 215.957C447.603 209.424 452.779 204.365 459.389 200.78C466.078 197.115 473.722 195.283 482.322 195.283C490.923 195.283 498.527 197.115 505.137 200.78C511.826 204.365 517.002 209.424 520.665 215.957C524.408 222.41 526.279 229.858 526.279 238.303C526.279 244.915 524.965 251.169 522.337 257.065C519.709 262.88 515.927 267.859 510.99 272.002L526.279 282.04V286.581L511.229 298.292L484.831 280.965ZM482.322 259.455C487.339 259.455 491.44 257.503 494.626 253.599C497.89 249.695 499.523 244.557 499.523 238.184C499.523 233.961 498.766 230.217 497.253 226.951C495.82 223.605 493.789 221.015 491.162 219.183C488.534 217.271 485.548 216.315 482.203 216.315C478.938 216.315 475.992 217.271 473.364 219.183C470.736 221.015 468.706 223.605 467.272 226.951C465.839 230.217 465.122 233.961 465.122 238.184C465.122 244.557 466.715 249.695 469.9 253.599C473.085 257.503 477.226 259.455 482.322 259.455Z" fill="#1E293B"/>
<path d="M567.709 280.248C561.418 280.248 555.804 279.132 550.867 276.902C546.01 274.671 542.227 271.524 539.52 267.461C536.812 263.398 535.459 258.778 535.459 253.599V219.422H560.065V253.241C560.065 255.87 560.781 257.941 562.215 259.455C563.728 260.889 565.599 261.606 567.829 261.606C569.979 261.606 571.731 260.889 573.084 259.455C574.518 257.941 575.234 255.87 575.234 253.241V219.422H599.363V253.599C599.363 258.857 598.009 263.518 595.301 267.581C592.674 271.564 588.971 274.671 584.193 276.902C579.415 279.132 573.921 280.248 567.709 280.248Z" fill="#1E293B"/>
<path d="M631.963 280.248C625.274 280.248 620.058 278.097 616.316 273.795C612.573 269.493 610.702 263.637 610.702 256.228V219.422H636.024V255.153C636.024 256.985 636.502 258.419 637.458 259.455C638.493 260.411 639.807 260.889 641.4 260.889C642.992 260.889 644.625 260.411 646.297 259.455L647.611 276.065C645.859 277.419 643.55 278.455 640.683 279.172C637.896 279.889 634.989 280.248 631.963 280.248ZM623.363 210.46C619.62 210.46 616.435 209.304 613.807 206.994C611.259 204.604 609.985 201.696 609.985 198.271C609.985 194.845 611.339 191.977 614.046 189.667C616.754 187.356 619.859 186.201 623.363 186.201C627.026 186.201 630.172 187.396 632.799 189.786C635.507 192.176 636.861 195.004 636.861 198.271C636.861 201.776 635.507 204.684 632.799 206.994C630.092 209.304 626.947 210.46 623.363 210.46Z" fill="#1E293B"/>
<path d="M652.297 266.505L673.32 234.718H653.133V219.422H702.823V232.328L682.876 263.996H703.301V279.292H652.297V266.505Z" fill="#1E293B"/>
<path d="M734.146 280.248C727.457 280.248 722.241 278.097 718.499 273.795C714.756 269.493 712.885 263.637 712.885 256.228V219.422H738.208V255.153C738.208 256.985 738.685 258.419 739.641 259.455C740.676 260.411 741.99 260.889 743.583 260.889C745.175 260.889 746.808 260.411 748.48 259.455L749.794 276.065C748.042 277.419 745.733 278.455 742.866 279.172C740.079 279.889 737.172 280.248 734.146 280.248ZM725.546 210.46C721.803 210.46 718.618 209.304 715.99 206.994C713.442 204.604 712.168 201.696 712.168 198.271C712.168 194.845 713.522 191.977 716.229 189.667C718.937 187.356 722.042 186.201 725.546 186.201C729.209 186.201 732.355 187.396 734.982 189.786C737.69 192.176 739.044 195.004 739.044 198.271C739.044 201.776 737.69 204.684 734.982 206.994C732.275 209.304 729.13 210.46 725.546 210.46Z" fill="#1E293B"/>
<path d="M760.356 234.24H752.83V219.422H760.356V214.403C760.356 205.56 762.466 198.868 766.686 194.327C770.986 189.786 776.959 187.516 784.603 187.516C790.735 187.516 796.428 189.069 801.684 192.176L800.848 208.309C796.229 206.476 792.367 205.56 789.262 205.56C786.873 205.56 785.041 206.158 783.767 207.353C782.493 208.468 781.856 210.101 781.856 212.252C781.856 214.323 782.533 216.713 783.887 219.422H800.609V234.24H785.559V279.292H760.356V234.24Z" fill="#1E293B"/>
<path d="M839.497 306.657C835.118 306.657 830.937 306.219 826.956 305.343L828.867 287.657C831.972 288.135 834.839 288.374 837.467 288.374C842.165 288.374 845.749 286.94 848.217 284.072C850.686 281.283 851.96 275.985 852.039 268.178C847.899 276.145 841.249 280.128 832.092 280.128C824.368 280.128 818.316 277.419 813.936 272.002C809.636 266.505 807.486 258.937 807.486 249.297V219.422H832.57V253.002C832.57 255.71 833.326 257.981 834.839 259.813C836.352 261.566 838.422 262.442 841.05 262.442C843.758 262.442 845.948 261.287 847.62 258.977C849.372 256.666 850.248 253.639 850.248 249.895V219.422H875.451V264.115C875.451 277.977 872.345 288.533 866.134 295.783C859.923 303.032 851.044 306.657 839.497 306.657Z" fill="#1E293B"/>
<path d="M908.534 280.248C901.765 280.248 896.51 278.137 892.767 273.914C889.104 269.612 887.272 263.757 887.272 256.348V200.541L912.476 196.837V254.555C912.476 256.786 912.993 258.419 914.029 259.455C915.143 260.411 917.055 260.889 919.762 260.889C921.753 260.889 923.704 260.411 925.615 259.455L926.451 276.185C921.116 278.893 915.143 280.248 908.534 280.248Z" fill="#1E293B"/>
<path d="M959.052 280.248C953.876 280.248 949.018 278.893 944.479 276.185C940.02 273.396 936.436 269.652 933.729 264.952C931.021 260.172 929.668 254.874 929.668 249.058C929.668 243.322 931.021 238.144 933.729 233.523C936.436 228.823 940.06 225.158 944.599 222.529C949.138 219.9 953.955 218.586 959.052 218.586C963.192 218.586 967.015 219.741 970.519 222.051C974.102 224.361 976.809 227.827 978.641 232.448V218.586H1003.72V279.292H978.641V268.178C974.659 276.225 968.13 280.248 959.052 280.248ZM966.816 261.367C970.001 261.367 972.708 260.251 974.938 258.021C977.247 255.71 978.482 253.002 978.641 249.895V248.939C978.482 245.752 977.208 243.043 974.819 240.813C972.509 238.582 969.842 237.467 966.816 237.467C963.471 237.467 960.604 238.662 958.216 241.052C955.906 243.362 954.752 246.15 954.752 249.417C954.752 252.763 955.946 255.591 958.335 257.901C960.724 260.212 963.551 261.367 966.816 261.367Z" fill="#1E293B"/>
<path d="M1060.85 280.248C1051.7 280.248 1045.21 276.225 1041.39 268.178V279.292H1016.06V200.541L1041.39 196.837V230.655C1043.38 226.433 1045.96 223.366 1049.15 221.454C1052.33 219.542 1056.2 218.586 1060.74 218.586C1066.07 218.586 1070.97 219.94 1075.43 222.649C1079.97 225.278 1083.51 228.942 1086.06 233.643C1088.69 238.343 1090 243.601 1090 249.417C1090 255.153 1088.65 260.371 1085.94 265.071C1083.31 269.771 1079.73 273.476 1075.19 276.185C1070.73 278.893 1065.95 280.248 1060.85 280.248ZM1053.21 261.367C1056.48 261.367 1059.26 260.172 1061.57 257.782C1063.88 255.392 1065.04 252.603 1065.04 249.417C1065.04 246.071 1063.84 243.242 1061.45 240.932C1059.14 238.622 1056.4 237.467 1053.21 237.467C1049.95 237.467 1047.16 238.622 1044.85 240.932C1042.54 243.163 1041.39 245.832 1041.39 248.939V249.417C1041.39 252.763 1042.54 255.591 1044.85 257.901C1047.24 260.212 1050.03 261.367 1053.21 261.367Z" fill="#1E293B"/>
</svg>
